<svg width="36" height="36" viewBox="0 0 36 36" fill="none" xmlns="http://www.w3.org/2000/svg">
<path d="M17.9944 1.71912C9.01436 1.71912 1.71875 9.01803 1.71875 17.998C1.71875 26.9779 9.01436 34.2735 17.9944 34.2735C26.9744 34.2735 34.2734 26.9779 34.2734 17.998C34.2734 9.01803 26.9744 1.71912 17.9944 1.71912ZM17.9961 4.28849C18.2233 4.28849 18.4412 4.37876 18.6019 4.53943C18.7625 4.7001 18.8528 4.91801 18.8528 5.14523C18.8528 5.37245 18.7625 5.59037 18.6019 5.75104C18.4412 5.91171 18.2233 6.00197 17.9961 6.00197C17.7688 6.00197 17.5509 5.91171 17.3903 5.75104C17.2296 5.59037 17.1393 5.37245 17.1393 5.14523C17.1393 4.91801 17.2296 4.7001 17.3903 4.53943C17.5509 4.37876 17.7688 4.28849 17.9961 4.28849ZM17.9818 7.70457C18.0963 7.70278 18.21 7.72396 18.3161 7.76684C18.4223 7.80973 18.5188 7.87346 18.5999 7.95426C18.681 8.03506 18.7451 8.1313 18.7884 8.23728C18.8317 8.34327 18.8533 8.45686 18.852 8.57135V17.998C18.852 18.1106 18.8298 18.222 18.7867 18.326C18.7435 18.43 18.6804 18.5245 18.6007 18.6041C18.5211 18.6836 18.4265 18.7467 18.3225 18.7897C18.2185 18.8327 18.107 18.8548 17.9944 18.8547H9.42862C9.20128 18.8547 8.98326 18.7644 8.82251 18.6037C8.66176 18.4429 8.57145 18.2249 8.57145 17.9976C8.57145 17.7702 8.66176 17.5522 8.82251 17.3915C8.98326 17.2307 9.20128 17.1404 9.42862 17.1404H17.1376V8.57135C17.135 8.34456 17.2224 8.12597 17.3806 7.96349C17.5388 7.80101 17.7551 7.7079 17.9818 7.70457ZM8.9216 8.05262C9.14445 8.05594 9.35724 8.14598 9.51479 8.30362C9.67542 8.46428 9.76566 8.68217 9.76566 8.90936C9.76566 9.13655 9.67542 9.35443 9.51479 9.5151C9.35413 9.67573 9.13624 9.76597 8.90905 9.76597C8.68186 9.76597 8.46397 9.67573 8.3033 9.5151C8.14267 9.35443 8.05243 9.13655 8.05243 8.90936C8.05243 8.68217 8.14267 8.46428 8.3033 8.30362C8.38433 8.22255 8.4808 8.15856 8.58701 8.11545C8.69321 8.07233 8.80699 8.05097 8.9216 8.05262ZM27.0956 8.05262C27.3185 8.05594 27.5313 8.14598 27.6888 8.30362C27.8495 8.46428 27.9397 8.68217 27.9397 8.90936C27.9397 9.13655 27.8495 9.35443 27.6888 9.5151C27.5282 9.67573 27.3103 9.76597 27.0831 9.76597C26.8559 9.76597 26.638 9.67573 26.4773 9.5151C26.3167 9.35443 26.2265 9.13655 26.2265 8.90936C26.2265 8.68217 26.3167 8.46428 26.4773 8.30362C26.5584 8.22255 26.6548 8.15856 26.761 8.11545C26.8672 8.07233 26.981 8.05097 27.0956 8.05262ZM5.14489 17.1396C5.37212 17.1396 5.59003 17.2298 5.7507 17.3905C5.91137 17.5512 6.00164 17.7691 6.00164 17.9963C6.00164 18.2235 5.91137 18.4414 5.7507 18.6021C5.59003 18.7628 5.37212 18.853 5.14489 18.853C4.91767 18.853 4.69975 18.7628 4.53908 18.6021C4.37841 18.4414 4.28815 18.2235 4.28815 17.9963C4.28815 17.7691 4.37841 17.5512 4.53908 17.3905C4.69975 17.2298 4.91767 17.1396 5.14489 17.1396ZM30.8472 17.1396C31.0745 17.1396 31.2924 17.2298 31.453 17.3905C31.6137 17.5512 31.704 17.7691 31.704 17.9963C31.704 18.2235 31.6137 18.4414 31.453 18.6021C31.2924 18.7628 31.0745 18.853 30.8472 18.853C30.62 18.853 30.4021 18.7628 30.2414 18.6021C30.0808 18.4414 29.9905 18.2235 29.9905 17.9963C29.9905 17.7691 30.0808 17.5512 30.2414 17.3905C30.4021 17.2298 30.62 17.1396 30.8472 17.1396ZM8.9216 26.2265C9.14445 26.2298 9.35724 26.3199 9.51479 26.4775C9.67542 26.6382 9.76566 26.8561 9.76566 27.0832C9.76566 27.3104 9.67542 27.5283 9.51479 27.689C9.35413 27.8496 9.13624 27.9399 8.90905 27.9399C8.68186 27.9399 8.46397 27.8496 8.3033 27.689C8.14267 27.5283 8.05243 27.3104 8.05243 27.0832C8.05243 26.8561 8.14267 26.6382 8.3033 26.4775C8.38433 26.3964 8.4808 26.3325 8.58701 26.2893C8.69321 26.2462 8.80699 26.2249 8.9216 26.2265ZM27.0956 26.2265C27.3185 26.2298 27.5313 26.3199 27.6888 26.4775C27.8495 26.6382 27.9397 26.8561 27.9397 27.0832C27.9397 27.3104 27.8495 27.5283 27.6888 27.689C27.5282 27.8496 27.3103 27.9399 27.0831 27.9399C26.8559 27.9399 26.638 27.8496 26.4773 27.689C26.3167 27.5283 26.2265 27.3104 26.2265 27.0832C26.2265 26.8561 26.3167 26.6382 26.4773 26.4775C26.5584 26.3964 26.6548 26.3325 26.761 26.2893C26.8672 26.2462 26.981 26.2249 27.0956 26.2265ZM17.9961 29.9906C18.2233 29.9906 18.4412 30.0809 18.6019 30.2416C18.7625 30.4022 18.8528 30.6202 18.8528 30.8474C18.8528 31.0746 18.7625 31.2925 18.6019 31.4532C18.4412 31.6138 18.2233 31.7041 17.9961 31.7041C17.7688 31.7041 17.5509 31.6138 17.3903 31.4532C17.2296 31.2925 17.1393 31.0746 17.1393 30.8474C17.1393 30.6202 17.2296 30.4022 17.3903 30.2416C17.5509 30.0809 17.7688 29.9906 17.9961 29.9906Z" fill="#3A0CA3"/>
<path d="M25.8156 0.000626525C25.6162 -0.00699908 25.4205 0.0551816 25.2621 0.176424C25.1037 0.297666 24.9925 0.470371 24.9478 0.664782C24.9031 0.859192 24.9276 1.06312 25.0171 1.24138C25.1067 1.41965 25.2556 1.56107 25.4382 1.6413C27.3986 2.53123 29.2018 3.75905 30.7176 5.27488C31.2718 5.82911 31.7873 6.42139 32.2621 7.0461C32.3301 7.13579 32.4152 7.21122 32.5123 7.26804C32.6095 7.32486 32.717 7.36196 32.8285 7.37723C32.94 7.39251 33.0535 7.38566 33.1624 7.35708C33.2713 7.32849 33.3735 7.27873 33.4631 7.21063C33.5527 7.14253 33.6281 7.05746 33.6848 6.96022C33.7416 6.86299 33.7786 6.7555 33.7938 6.64396C33.809 6.53241 33.8021 6.41896 33.7734 6.3101C33.7447 6.20124 33.6949 6.09909 33.6267 6.0095C33.1061 5.3245 32.5394 4.67369 31.9291 4.06343C30.26 2.39438 28.2861 1.05326 26.1461 0.081756C26.0424 0.032895 25.9301 0.00529731 25.8156 0.000626525ZM34.5428 8.16975C34.3943 8.17098 34.2486 8.21078 34.12 8.28532C33.9915 8.35986 33.8846 8.46658 33.8097 8.59492C33.7349 8.72326 33.6947 8.86885 33.6931 9.01741C33.6915 9.16598 33.7286 9.31237 33.8007 9.44228C33.9963 9.80656 34.1802 10.1775 34.3512 10.5542C34.3951 10.6605 34.46 10.7568 34.5419 10.8375C34.6239 10.9182 34.7212 10.9816 34.8281 11.0239C34.9351 11.0662 35.0494 11.0865 35.1644 11.0836C35.2794 11.0808 35.3926 11.0548 35.4973 11.0073C35.602 10.9598 35.6961 10.8917 35.7739 10.807C35.8517 10.7224 35.9117 10.6229 35.9503 10.5146C35.9889 10.4063 36.0053 10.2913 35.9985 10.1765C35.9917 10.0617 35.9619 9.94942 35.9108 9.8464C35.7241 9.4351 35.5238 9.02959 35.3101 8.63158C35.2372 8.49133 35.127 8.37395 34.9916 8.29244C34.8562 8.21093 34.7009 8.16849 34.5428 8.16975ZM0.821061 24.9238C0.679908 24.9297 0.542404 24.9704 0.420789 25.0423C0.299175 25.1142 0.197226 25.2151 0.124017 25.3359C0.0508081 25.4567 0.00861177 25.5938 0.00118491 25.7349C-0.00624194 25.876 0.021331 26.0167 0.081449 26.1445C1.05303 28.2849 2.39486 30.2592 4.06397 31.9283C5.73309 33.5974 7.70741 34.9392 9.84784 35.9108C9.95086 35.9619 10.0631 35.9917 10.1779 35.9985C10.2927 36.0053 10.4077 35.9889 10.516 35.9503C10.6243 35.9117 10.7238 35.8517 10.8084 35.7739C10.8931 35.6961 10.9612 35.602 11.0087 35.4973C11.0562 35.3926 11.0822 35.2794 11.085 35.1644C11.0879 35.0495 11.0676 34.9351 11.0253 34.8282C10.983 34.7213 10.9197 34.6239 10.839 34.542C10.7583 34.46 10.6619 34.3952 10.5557 34.3513C8.59515 33.4614 6.79145 32.2328 5.27546 30.7168C3.75948 29.2009 2.53091 27.3972 1.64099 25.4367C1.57186 25.2786 1.45661 25.145 1.31031 25.0535C1.16401 24.962 0.993482 24.9168 0.821061 24.9238Z" fill="#3A0CA3"/>
</svg>
