<svg width="36" height="31" viewBox="0 0 36 31" fill="none" xmlns="http://www.w3.org/2000/svg">
<path d="M36 28.2077H26.7605V29.9125C26.7605 30.2781 27.0644 30.5871 27.4352 30.5871H35.3253C35.6961 30.5871 36 30.2833 36 29.9125V28.2077Z" fill="#3A0CA3"/>
<path d="M26.7605 27.0798H36C36 21.9914 36 16.8979 36 11.8094C36 11.4386 35.7013 11.1348 35.3253 11.1348H27.4352C27.0644 11.1348 26.7605 11.4386 26.7605 11.8094C26.7605 16.8979 26.7605 21.9914 26.7605 27.0798ZM30.3708 13.5399C29.6292 13.5399 29.6292 12.4172 30.3708 12.4172H32.4103C33.1519 12.4172 33.1519 13.5399 32.4103 13.5399H30.3708Z" fill="#3A0CA3"/>
<path d="M25.6378 20.4154H0V23.1038C0 23.727 0.515022 24.242 1.1382 24.242C9.30129 24.242 17.4695 24.242 25.6378 24.242V20.4154Z" fill="#3A0CA3"/>
<path d="M0 19.2927H25.6378V11.8094C25.6378 10.8206 26.4412 10.0069 27.4352 10.0069H35.3253C35.5622 10.0069 35.794 10.0584 36 10.1408V1.1382C36 0.509871 35.485 0 34.8618 0H1.1382C0.515022 0 0 0.509871 0 1.1382V19.2927Z" fill="#3A0CA3"/>
<path d="M20.534 25.37H15.7804V28.424H13.0817C11.6602 28.424 11.6602 30.582 13.0817 30.582C16.4653 30.582 19.849 30.582 23.2327 30.582C24.6542 30.582 24.6542 28.424 23.2327 28.424H20.534V25.37Z" fill="#3A0CA3"/>
</svg>
