<svg width="38" height="38" viewBox="0 0 38 38" fill="none" xmlns="http://www.w3.org/2000/svg">
<path d="M19 0.307678C15.303 0.307678 11.689 1.40396 8.61512 3.4579C5.54118 5.51184 3.14534 8.43117 1.73057 11.8467C0.315793 15.2623 -0.0543774 19.0207 0.666869 22.6467C1.38812 26.2726 3.16838 29.6033 5.78255 32.2174C8.39672 34.8316 11.7274 36.6119 15.3533 37.3331C18.9793 38.0544 22.7377 37.6842 26.1532 36.2694C29.5688 34.8546 32.4881 32.4588 34.5421 29.3849C36.596 26.3109 37.6923 22.697 37.6923 19C37.6923 14.0425 35.7229 9.28801 32.2175 5.78253C28.712 2.27704 23.9575 0.307678 19 0.307678ZM20.3352 28.3461C20.3352 28.7002 20.1945 29.0398 19.9441 29.2902C19.6937 29.5406 19.3541 29.6813 19 29.6813C18.6459 29.6813 18.3063 29.5406 18.0559 29.2902C17.8055 29.0398 17.6648 28.7002 17.6648 28.3461V14.9945C17.6648 14.6404 17.8055 14.3008 18.0559 14.0504C18.3063 13.8 18.6459 13.6593 19 13.6593C19.3541 13.6593 19.6937 13.8 19.9441 14.0504C20.1945 14.3008 20.3352 14.6404 20.3352 14.9945V28.3461ZM19 10.989C18.7359 10.989 18.4778 10.9107 18.2582 10.764C18.0387 10.6173 17.8675 10.4087 17.7665 10.1648C17.6654 9.92081 17.639 9.65235 17.6905 9.39335C17.742 9.13435 17.8692 8.89645 18.0559 8.70973C18.2426 8.523 18.4805 8.39584 18.7395 8.34432C18.9985 8.2928 19.267 8.31924 19.5109 8.4203C19.7549 8.52135 19.9634 8.69248 20.1102 8.91205C20.2569 9.13162 20.3352 9.38976 20.3352 9.65383C20.3352 10.0079 20.1945 10.3475 19.9441 10.5979C19.6937 10.8483 19.3541 10.989 19 10.989Z" fill="#3A0CA3"/>
</svg>
