<svg width="76" height="94" viewBox="0 0 76 94" fill="none" xmlns="http://www.w3.org/2000/svg">
<g clip-path="url(#clip0)">
<path d="M49.0519 64.933C41.6918 68.6921 32.6661 65.7982 28.8951 58.4613C28.8775 58.4321 28.8658 58.397 28.8482 58.3678C28.8306 58.3386 28.813 58.3093 28.7954 58.2743C28.6664 58.0287 28.5608 57.7773 28.4553 57.526C27.904 56.2515 27.7808 55.1641 27.7456 53.9832C27.6987 52.5158 26.948 51.142 25.6813 50.3937C25.5229 50.3001 25.3705 50.2241 25.2238 50.1657C22.7138 49.1894 19.9808 50.9315 19.8108 53.6149C19.6114 56.766 20.2623 60.0106 21.8751 63.0096C26.3147 71.2585 36.6071 74.5908 45.0581 70.5102C49.2161 68.4991 52.2188 65.0909 53.7788 61.1389C52.5179 62.6706 50.9286 63.9684 49.0519 64.933Z" fill="white" stroke="#3A0CA3" stroke-width="4" stroke-miterlimit="10"/>
<path d="M69.4374 58.9173C69.4668 58.5958 70.6397 50.2358 63.2326 49.1192C55.4678 47.95 54.7406 55.5792 54.7406 55.5792C53.8668 63.3604 49.1575 69.7678 41.6273 71.6561C32.0034 74.0705 22.3853 68.0256 20.3445 58.438C19.758 55.6727 19.8694 52.9192 20.5556 50.3645C21.3356 47.4706 20.45 44.3429 18.0748 42.5014C14.0986 39.4205 8.31019 41.1802 6.69741 45.898C4.82659 51.3758 4.4102 57.4324 5.81771 63.5066C9.68838 80.1856 26.2208 91.0009 43.111 87.8849C57.8372 85.1723 68.2704 72.9773 69.4374 58.9173Z" fill="white"/>
<path d="M75.6306 10.4649C76.2698 9.38924 76.0997 8.74616 75.0206 8.10893C70.6632 5.53079 66.2999 2.95849 61.9366 0.386191C60.8223 -0.268576 60.1655 -0.104884 59.5086 1.00004L56.3417 6.30832L55.2685 5.68863C54.9166 5.48987 54.5882 5.29694 54.2598 5.10987C53.3097 4.57202 52.6646 4.72987 52.1074 5.65356C51.4506 6.74094 50.7996 7.83417 50.1311 8.95662L48.747 11.2951C47.2046 13.9025 45.6035 16.5917 44.0201 19.2341C43.7738 19.6434 43.1756 20.0467 42.6419 19.9707C40.818 19.7135 39.0117 19.5907 37.2347 19.5907C35.3228 19.5907 33.4461 19.7369 31.6105 20.0292C22.3267 21.52 14.6147 25.8461 8.69142 32.8965C2.91474 39.7657 -0.00585584 47.8042 8.81468e-06 56.778C8.81468e-06 59.8355 0.310835 62.5949 0.932489 65.2198C2.9382 73.6324 7.38361 80.6068 14.1397 85.9502C20.4442 90.9311 27.8161 93.632 36.0618 93.9711C39.1466 94.0997 42.3193 93.7899 45.4863 93.0474C54.0838 91.0422 61.1038 86.6634 66.3527 80.0398C72.8273 71.8727 75.4839 62.4897 74.2582 52.1479C73.7715 48.038 72.6396 44.1971 70.8978 40.7362C70.0885 39.1285 69.1619 37.5968 68.1825 35.9775C67.7485 35.2584 67.2969 34.5159 66.857 33.7618L66.6518 33.4168L67.2148 32.4698C67.508 31.9787 67.8364 31.4292 68.159 30.8796L69.7659 28.1729C71.5253 25.203 73.2847 22.2332 75.0382 19.2575C75.6188 18.2754 75.437 17.6031 74.4283 17.0068C74.1292 16.8255 73.8242 16.6501 73.5076 16.4631L72.4402 15.8375L73.6366 13.8148C74.3169 12.6806 74.9737 11.5698 75.6306 10.4649ZM71.2966 50.9494C72.9622 61.3964 70.4228 70.7795 63.7429 78.8296C58.4882 85.161 51.7908 89.1071 43.8266 90.5628C41.4572 90.9954 39.1466 91.2117 36.8828 91.2117C28.7837 91.2117 21.4001 88.4465 14.8493 82.9453C8.65624 77.7422 4.78557 71.1303 3.35459 63.2906C1.46617 52.9663 3.75925 43.6008 10.1576 35.463C15.3185 28.8978 22.1919 24.7061 30.5783 22.999C34.8595 22.128 39.1642 22.0987 43.3633 22.923C44.6593 23.1744 45.0347 22.999 45.7208 21.8064C45.7854 21.6953 45.8499 21.5843 45.9202 21.479C45.9613 21.4089 46.0082 21.3387 46.0493 21.2627L47.7676 18.3631L65.9891 29.1082L65.6372 29.6987C65.4319 30.0378 65.2325 30.3769 65.0331 30.7101C64.5874 31.4584 64.1476 32.1833 63.7195 32.9141C63.2737 33.6741 63.3148 34.1885 63.8837 34.8725C67.8658 39.6605 70.3582 45.0682 71.2966 50.9494ZM67.3966 26.6996L49.1927 15.9661L53.8668 8.0914L54.9049 8.69355C55.0046 8.75201 55.0984 8.80462 55.1923 8.86309L55.1864 8.86893L69.6955 17.3751C69.8246 17.4803 69.9829 17.5855 70.1647 17.6966C70.4579 17.8661 70.7453 18.0415 71.0444 18.2227L72.0707 18.8366L67.3966 26.6996ZM72.364 10.5409C72.059 11.0612 71.7599 11.564 71.4608 12.0668C70.8861 13.0314 70.3465 13.9551 69.807 14.8788L58.4413 8.21416C59.0101 7.24371 59.5907 6.27909 60.1713 5.29694L61.3795 3.26249L72.7158 9.95047L72.364 10.5409Z" fill="white"/>
<path d="M53.6029 23.7236C53.1631 23.4664 52.5942 23.6125 52.3361 24.0568L40.2843 44.5592L38.0264 43.2438C35.7744 41.9343 32.8069 42.6066 31.5225 44.8632C30.2147 47.1491 31.0944 50.1072 33.5106 51.294C35.7099 52.3755 38.3841 51.4635 39.6216 49.3472L40.947 47.0789L44.1491 48.9438L42.8295 51.1946C41.5159 53.4395 42.1903 56.3976 44.4599 57.678C46.753 58.9816 49.7205 58.1047 50.911 55.6961C51.996 53.5038 51.0811 50.838 48.9581 49.6044L46.6826 48.2832L58.6993 27.8451C58.9397 27.4359 58.887 26.8922 58.5175 26.594C58.0659 26.2374 57.4208 26.3719 57.1393 26.8513L45.0874 47.3478L41.8853 45.4829L53.9372 24.9805C54.1952 24.5479 54.0486 23.9808 53.6029 23.7236ZM37.9502 48.5463C37.176 49.8675 35.4694 50.3118 34.1499 49.5401C32.8244 48.7684 32.3787 47.0672 33.1529 45.7518C33.927 44.4306 35.6336 43.9863 36.9532 44.758L39.3518 46.1552L37.9502 48.5463ZM45.7501 49.8792L48.1488 51.2764C49.4742 52.0481 49.9199 53.7493 49.1458 55.0647C48.3716 56.386 46.665 56.8303 45.3455 56.0586C44.0201 55.2869 43.5744 53.5857 44.3485 52.2703L45.7501 49.8792Z" fill="white"/>
</g>
<defs>
<clipPath id="clip0">
<rect width="76" height="94" fill="white"/>
</clipPath>
</defs>
</svg>
