<svg width="36" height="29" viewBox="0 0 36 29" fill="none" xmlns="http://www.w3.org/2000/svg">
<path d="M26.6298 7.50275C25.909 6.81994 24.8089 6.85787 24.1261 7.54069C23.4433 8.26144 23.4812 9.36153 24.1641 10.0443C25.34 11.1824 25.9849 12.6618 25.9849 14.293C25.9849 15.9241 25.34 17.4036 24.1641 18.5416C23.4433 19.2244 23.4433 20.3624 24.1261 21.0452C24.4675 21.4246 24.9607 21.5763 25.4159 21.5763C25.8711 21.5763 26.2884 21.4246 26.6677 21.0832C28.5265 19.3003 29.5507 16.8725 29.5507 14.255C29.5128 11.7514 28.4885 9.32359 26.6298 7.50275Z" fill="#3A0CA3"/>
<path d="M30.6887 2.41955C29.968 1.77467 28.8299 1.8126 28.1851 2.57128C27.5402 3.29203 27.5781 4.43005 28.3368 5.07493C30.9542 7.42685 32.4716 10.803 32.4716 14.3309C32.4716 17.8587 30.9542 21.2349 28.3368 23.5868C27.616 24.2316 27.5402 25.3697 28.1851 26.0904C28.5265 26.4698 29.0196 26.6974 29.5127 26.6974C29.93 26.6974 30.3473 26.5456 30.6887 26.2422C34.0648 23.2074 35.9995 18.8829 35.9995 14.3309C36.0374 9.77876 34.1028 5.45427 30.6887 2.41955Z" fill="#3A0CA3"/>
<path d="M18.2084 0.219423L7.47302 8.22352H1.06215C0.455209 8.22352 0 8.71666 0 9.28567V19.3382C0 19.9452 0.493143 20.4004 1.06215 20.4004H7.47302L18.2084 28.4424C18.9291 28.9735 19.9154 28.4803 19.9154 27.5699V1.05397C19.9154 0.181489 18.8912 -0.311655 18.2084 0.219423Z" fill="#3A0CA3"/>
</svg>
